<svg id="Слой_1" data-name="Слой 1" xmlns="http://www.w3.org/2000/svg" viewBox="0 0 523.48 166.35"><defs><style>.cls-1{fill:#1d1d1b;}.cls-2{fill:#36a9e1;}</style></defs><title>logo</title><path class="cls-1" d="M425,154.91q0-20.88,12.49-33.19,12.84-12.65,35.13-12.65a143.32,143.32,0,0,1,29.47,3.3q4.52,1,8.09,2.08V193q0,22.9-11.65,34t-36.06,11.1a103.41,103.41,0,0,1-32.87-5.46l4.68-22.21a70.22,70.22,0,0,0,26.5,5.29q13.4,0,18.13-5a17.87,17.87,0,0,0,4.73-12.8V194.5A43.26,43.26,0,0,1,465,198.42q-19.34,0-29.67-11.46T425,154.91Zm27,0q0,22.17,18,22.17a27.89,27.89,0,0,0,13.71-3.55V131.28a63,63,0,0,0-10.84-.87q-10.5,0-15.66,6.93T452,154.91Z" transform="translate(-32.02 -71.7)"/><path class="cls-1" d="M93,125.18h55.42v49.56l-4.26,4.44c-11.37,11.72-30.38,19.36-48.67,19.36A63.42,63.42,0,1,1,143.58,93.91l-22.92,19.72a33.14,33.14,0,1,0-25.23,54.54,45.26,45.26,0,0,0,22.74-6.57v-6.22H93v-30.2Z" transform="translate(-32.02 -71.7)"/><circle class="cls-2" cx="166.4" cy="94.46" r="32.38"/><path class="cls-1" d="M363,137a61.86,61.86,0,0,1-61.82,61.82H248.58V75h52.58A62,62,0,0,1,363,137Zm-30.2,0a31.69,31.69,0,0,0-31.62-31.62H278.78v63.24h22.38A31.69,31.69,0,0,0,332.78,137Z" transform="translate(-32.02 -71.7)"/><circle class="cls-2" cx="361.95" cy="15.19" r="14.35"/><rect class="cls-1" x="348.61" y="37.69" width="26.68" height="89.14"/><rect class="cls-1" x="495.79" y="37.69" width="26.68" height="89.42"/><circle class="cls-2" cx="509.13" cy="15.19" r="14.35"/></svg>